<svg xmlns="http://www.w3.org/2000/svg" width="1200" height="320" viewBox="0 0 1200 320" role="img" aria-label="Simple3D: 3D software renderer">
  <defs>
    <linearGradient id="sky" x2="1" y2="1">
      <stop stop-color="#172744"/>
      <stop offset="1" stop-color="#0D1729"/>
    </linearGradient>
    <radialGradient id="glow">
      <stop stop-color="#4B67BF" stop-opacity=".32"/>
      <stop offset="1" stop-color="#4B67BF" stop-opacity="0"/>
    </radialGradient>
  </defs>
  <rect width="1200" height="320" rx="26" fill="url(#sky)"/>
  <circle cx="192" cy="152" r="172" fill="url(#glow)"/>
  <g transform="translate(63 53) scale(1.68)">
    <path d="M64 23 99 43 64 63 29 43Z" fill="#BED0FF"/>
    <path d="M29 43 64 63v39L29 82Z" fill="#7E98F4"/>
    <path d="M99 43 64 63v39l35-20Z" fill="#415ED3"/>
    <path d="M64 63v39" stroke="#27429E" stroke-width="2"/>
    <circle cx="95" cy="27" r="6" fill="#FFC47A"/>
  </g>
  <text x="327" y="145" fill="#F7F9FF" font-family="Inter, Avenir Next, Arial, sans-serif" font-size="72" font-weight="720" letter-spacing="-3">Simple3D</text>
  <text x="332" y="203" fill="#B6C8E8" font-family="Inter, Avenir Next, Arial, sans-serif" font-size="27">3D software renderer</text>
  <text x="334" y="250" fill="#77DDCE" font-family="Inter, Avenir Next, Arial, sans-serif" font-size="17" font-weight="600" letter-spacing="2">.NET MAUI · iOS · Android · Mac Catalyst</text>
  <g fill="none" stroke="#7D96C5" stroke-width="2" opacity=".20" stroke-linejoin="round">
    <path d="m963 79 53 30-53 31-53-31zM910 109v60l53 31 53-31v-60M963 140v60"/>
    <path d="m1094 154 36 21-36 21-36-21zM1058 175v41l36 21 36-21v-41M1094 196v41"/>
    <path d="m857 205 26 15-26 15-26-15zM831 220v30l26 15 26-15v-30M857 235v30"/>
  </g>
  <circle cx="1051" cy="79" r="5" fill="#FFC47A" opacity=".75"/>
</svg>
